<mxfile host="Electron" modified="2024-01-18T14:21:23.245Z" agent="Mozilla/5.0 (Macintosh; Intel Mac OS X 10_15_7) AppleWebKit/537.36 (KHTML, like Gecko) draw.io/22.1.18 Chrome/120.0.6099.199 Electron/28.1.2 Safari/537.36" etag="BvAaeTNiefjAYSiHdhdM" version="22.1.18" type="device">
  <diagram name="Page-1" id="oDU-sGXFS214IQAxeE5U">
    <mxGraphModel dx="2021" dy="1305" grid="1" gridSize="10" guides="1" tooltips="1" connect="1" arrows="0" fold="1" page="0" pageScale="1" pageWidth="1100" pageHeight="1700" math="0" shadow="0">
      <root>
        <mxCell id="0" />
        <mxCell id="1" parent="0" />
        <mxCell id="O_LtsVnzB3t-fKtQCP8V-51" value="VPC" style="sketch=0;outlineConnect=0;html=1;whiteSpace=wrap;fontSize=12;fontStyle=0;shape=mxgraph.aws4.group;grIcon=mxgraph.aws4.group_vpc;strokeColor=#36393d;fillColor=#eeeeee;verticalAlign=top;align=left;spacingLeft=30;dashed=0;" parent="1" vertex="1">
          <mxGeometry y="10" width="1610" height="1210" as="geometry" />
        </mxCell>
        <mxCell id="O_LtsVnzB3t-fKtQCP8V-7" value="AWS VPC" style="text;html=1;align=center;verticalAlign=middle;resizable=0;points=[];autosize=1;strokeColor=none;fillColor=none;" parent="1" vertex="1">
          <mxGeometry x="510" y="10" width="80" height="30" as="geometry" />
        </mxCell>
        <mxCell id="-X8cqBuXrEdVPGyybMgc-22" style="edgeStyle=orthogonalEdgeStyle;rounded=0;orthogonalLoop=1;jettySize=auto;html=1;exitX=1;exitY=0.5;exitDx=0;exitDy=0;entryX=0.988;entryY=0.159;entryDx=0;entryDy=0;strokeColor=#000000;entryPerimeter=0;" parent="1" source="O_LtsVnzB3t-fKtQCP8V-17" target="-X8cqBuXrEdVPGyybMgc-20" edge="1">
          <mxGeometry relative="1" as="geometry" />
        </mxCell>
        <mxCell id="O_LtsVnzB3t-fKtQCP8V-17" value="" style="rounded=0;whiteSpace=wrap;html=1;fillColor=#cce5ff;shadow=0;strokeColor=#36393d;gradientDirection=west;perimeterSpacing=1;" parent="1" vertex="1">
          <mxGeometry x="533.6" y="160" width="570" height="200" as="geometry" />
        </mxCell>
        <mxCell id="O_LtsVnzB3t-fKtQCP8V-18" value="172.31.52.50" style="image;aspect=fixed;perimeter=ellipsePerimeter;html=1;align=center;shadow=0;dashed=0;spacingTop=3;image=img/lib/active_directory/generic_server.svg;" parent="1" vertex="1">
          <mxGeometry x="563.6" y="204" width="47.6" height="85" as="geometry" />
        </mxCell>
        <mxCell id="O_LtsVnzB3t-fKtQCP8V-19" value="172.31.52.51" style="image;aspect=fixed;perimeter=ellipsePerimeter;html=1;align=center;shadow=0;dashed=0;spacingTop=3;image=img/lib/active_directory/generic_server.svg;" parent="1" vertex="1">
          <mxGeometry x="672.0000000000001" y="204" width="47.6" height="85" as="geometry" />
        </mxCell>
        <mxCell id="O_LtsVnzB3t-fKtQCP8V-20" value="172.31.52.52" style="image;aspect=fixed;perimeter=ellipsePerimeter;html=1;align=center;shadow=0;dashed=0;spacingTop=3;image=img/lib/active_directory/generic_server.svg;" parent="1" vertex="1">
          <mxGeometry x="784.5100000000001" y="204" width="47.6" height="85" as="geometry" />
        </mxCell>
        <mxCell id="O_LtsVnzB3t-fKtQCP8V-21" value="&lt;font color=&quot;#000000&quot;&gt;172.31.52.0/24&lt;/font&gt;" style="text;strokeColor=none;align=center;fillColor=none;html=1;verticalAlign=middle;whiteSpace=wrap;rounded=0;" parent="1" vertex="1">
          <mxGeometry x="549.6" y="169" width="60" height="30" as="geometry" />
        </mxCell>
        <mxCell id="-X8cqBuXrEdVPGyybMgc-23" style="edgeStyle=orthogonalEdgeStyle;rounded=0;orthogonalLoop=1;jettySize=auto;html=1;exitX=0.5;exitY=0;exitDx=0;exitDy=0;entryX=0.5;entryY=0;entryDx=0;entryDy=0;strokeColor=#000000;" parent="1" source="O_LtsVnzB3t-fKtQCP8V-26" target="-X8cqBuXrEdVPGyybMgc-20" edge="1">
          <mxGeometry relative="1" as="geometry" />
        </mxCell>
        <mxCell id="O_LtsVnzB3t-fKtQCP8V-26" value="" style="rounded=0;whiteSpace=wrap;html=1;fillColor=#cce5ff;shadow=0;strokeColor=#36393d;gradientDirection=west;perimeterSpacing=1;" parent="1" vertex="1">
          <mxGeometry x="533.6" y="390" width="570" height="250" as="geometry" />
        </mxCell>
        <mxCell id="O_LtsVnzB3t-fKtQCP8V-27" value="172.31.53.50" style="image;aspect=fixed;perimeter=ellipsePerimeter;html=1;align=center;shadow=0;dashed=0;spacingTop=3;image=img/lib/active_directory/generic_server.svg;" parent="1" vertex="1">
          <mxGeometry x="549.8000000000001" y="458.5" width="47.6" height="85" as="geometry" />
        </mxCell>
        <mxCell id="O_LtsVnzB3t-fKtQCP8V-28" value="172.31.53.51" style="image;aspect=fixed;perimeter=ellipsePerimeter;html=1;align=center;shadow=0;dashed=0;spacingTop=3;image=img/lib/active_directory/generic_server.svg;" parent="1" vertex="1">
          <mxGeometry x="658.5999999999999" y="458.5" width="47.6" height="85" as="geometry" />
        </mxCell>
        <mxCell id="O_LtsVnzB3t-fKtQCP8V-29" value="172.31.53.52" style="image;aspect=fixed;perimeter=ellipsePerimeter;html=1;align=center;shadow=0;dashed=0;spacingTop=3;image=img/lib/active_directory/generic_server.svg;" parent="1" vertex="1">
          <mxGeometry x="805.6999999999999" y="457.5" width="47.6" height="85" as="geometry" />
        </mxCell>
        <mxCell id="O_LtsVnzB3t-fKtQCP8V-30" value="172.31.53.53" style="image;aspect=fixed;perimeter=ellipsePerimeter;html=1;align=center;shadow=0;dashed=0;spacingTop=3;image=img/lib/active_directory/generic_server.svg;" parent="1" vertex="1">
          <mxGeometry x="897.2" y="457.5" width="47.6" height="85" as="geometry" />
        </mxCell>
        <mxCell id="O_LtsVnzB3t-fKtQCP8V-32" value="&lt;font color=&quot;#000000&quot;&gt;172.31.53.0/24&lt;/font&gt;" style="text;strokeColor=none;align=center;fillColor=none;html=1;verticalAlign=middle;whiteSpace=wrap;rounded=0;" parent="1" vertex="1">
          <mxGeometry x="548.6" y="400" width="60" height="30" as="geometry" />
        </mxCell>
        <mxCell id="-X8cqBuXrEdVPGyybMgc-21" style="edgeStyle=orthogonalEdgeStyle;rounded=0;orthogonalLoop=1;jettySize=auto;html=1;exitX=1;exitY=0.5;exitDx=0;exitDy=0;entryX=1;entryY=0.5;entryDx=0;entryDy=0;strokeColor=#000000;" parent="1" source="O_LtsVnzB3t-fKtQCP8V-33" target="-X8cqBuXrEdVPGyybMgc-20" edge="1">
          <mxGeometry relative="1" as="geometry" />
        </mxCell>
        <mxCell id="O_LtsVnzB3t-fKtQCP8V-33" value="" style="rounded=0;whiteSpace=wrap;html=1;fillColor=#cce5ff;shadow=0;strokeColor=#36393d;gradientDirection=west;perimeterSpacing=1;" parent="1" vertex="1">
          <mxGeometry x="534.75" y="670" width="570" height="200" as="geometry" />
        </mxCell>
        <mxCell id="O_LtsVnzB3t-fKtQCP8V-37" value="" style="sketch=0;html=1;aspect=fixed;strokeColor=none;shadow=0;fillColor=#3B8DF1;verticalAlign=top;labelPosition=center;verticalLabelPosition=bottom;shape=image;labelBackgroundColor=default;points=[];image=img/lib/mscae/VirtualMachineWindows.svg;" parent="1" vertex="1">
          <mxGeometry x="787.31" y="730" width="68.18" height="60" as="geometry" />
        </mxCell>
        <mxCell id="O_LtsVnzB3t-fKtQCP8V-38" value="&lt;font color=&quot;#000000&quot;&gt;Windows 10&lt;br&gt;Workstation01&lt;br&gt;&lt;/font&gt;" style="text;strokeColor=none;align=center;fillColor=none;html=1;verticalAlign=middle;whiteSpace=wrap;rounded=0;" parent="1" vertex="1">
          <mxGeometry x="547.6899999999999" y="810" width="60" height="30" as="geometry" />
        </mxCell>
        <mxCell id="O_LtsVnzB3t-fKtQCP8V-39" value="&lt;font color=&quot;#000000&quot;&gt;172.31.54.0/24&lt;/font&gt;" style="text;strokeColor=none;align=center;fillColor=none;html=1;verticalAlign=middle;whiteSpace=wrap;rounded=0;" parent="1" vertex="1">
          <mxGeometry x="544.98" y="680" width="60" height="30" as="geometry" />
        </mxCell>
        <mxCell id="O_LtsVnzB3t-fKtQCP8V-46" value="" style="rounded=0;whiteSpace=wrap;html=1;fillColor=#cce5ff;shadow=0;strokeColor=#36393d;gradientDirection=west;perimeterSpacing=1;" parent="1" vertex="1">
          <mxGeometry x="533.6" y="900" width="570" height="200" as="geometry" />
        </mxCell>
        <mxCell id="O_LtsVnzB3t-fKtQCP8V-53" value="" style="outlineConnect=0;dashed=0;verticalLabelPosition=bottom;verticalAlign=top;align=center;html=1;shape=mxgraph.aws3.virtual_private_cloud;fillColor=#F58534;gradientColor=none;" parent="1" vertex="1">
          <mxGeometry x="765.25" y="40" width="79.5" height="54" as="geometry" />
        </mxCell>
        <mxCell id="O_LtsVnzB3t-fKtQCP8V-55" value="&lt;font color=&quot;#000000&quot;&gt;Ubuntu 18.04.6&lt;br&gt;DNS Bind&lt;br&gt;&lt;br&gt;&lt;/font&gt;" style="text;strokeColor=none;align=center;fillColor=none;html=1;verticalAlign=middle;whiteSpace=wrap;rounded=0;" parent="1" vertex="1">
          <mxGeometry x="557.4" y="330" width="60" height="30" as="geometry" />
        </mxCell>
        <mxCell id="00_ZHb2V5lhUGdTlmTi6-1" value="&lt;font color=&quot;#000000&quot;&gt;Windows Server 2019&lt;br&gt;DC 1&lt;br&gt;&lt;/font&gt;" style="text;strokeColor=none;align=center;fillColor=none;html=1;verticalAlign=middle;whiteSpace=wrap;rounded=0;" parent="1" vertex="1">
          <mxGeometry x="543.6" y="585" width="60" height="30" as="geometry" />
        </mxCell>
        <mxCell id="00_ZHb2V5lhUGdTlmTi6-2" value="&lt;font color=&quot;#000000&quot;&gt;Windows Server 2019&lt;br&gt;DC 2&lt;br&gt;&lt;/font&gt;" style="text;strokeColor=none;align=center;fillColor=none;html=1;verticalAlign=middle;whiteSpace=wrap;rounded=0;" parent="1" vertex="1">
          <mxGeometry x="646.2" y="584.5" width="60" height="30" as="geometry" />
        </mxCell>
        <mxCell id="00_ZHb2V5lhUGdTlmTi6-3" value="&lt;font color=&quot;#000000&quot;&gt;MySQL&lt;br&gt;&lt;/font&gt;" style="text;strokeColor=none;align=center;fillColor=none;html=1;verticalAlign=middle;whiteSpace=wrap;rounded=0;" parent="1" vertex="1">
          <mxGeometry x="799.5000000000001" y="582.5" width="60" height="30" as="geometry" />
        </mxCell>
        <mxCell id="00_ZHb2V5lhUGdTlmTi6-5" value="&lt;span style=&quot;background-color: rgb(0, 0, 0);&quot;&gt;172.31.55.50&lt;/span&gt;" style="sketch=0;pointerEvents=1;shadow=0;dashed=0;html=1;strokeColor=none;fillColor=#DF8C42;labelPosition=center;verticalLabelPosition=bottom;verticalAlign=top;align=center;outlineConnect=0;shape=mxgraph.veeam2.linux;" parent="1" vertex="1">
          <mxGeometry x="549.6" y="977.5" width="56" height="53" as="geometry" />
        </mxCell>
        <mxCell id="00_ZHb2V5lhUGdTlmTi6-13" value="&lt;font color=&quot;#000000&quot;&gt;172.31.55.0/24&lt;/font&gt;" style="text;strokeColor=none;align=center;fillColor=none;html=1;verticalAlign=middle;whiteSpace=wrap;rounded=0;" parent="1" vertex="1">
          <mxGeometry x="556.6" y="910" width="60" height="30" as="geometry" />
        </mxCell>
        <mxCell id="00_ZHb2V5lhUGdTlmTi6-14" value="&lt;font color=&quot;#000000&quot;&gt;+ DHCP Server&lt;/font&gt;" style="text;strokeColor=none;align=center;fillColor=none;html=1;verticalAlign=middle;whiteSpace=wrap;rounded=0;" parent="1" vertex="1">
          <mxGeometry x="586.2" y="500" width="60" height="30" as="geometry" />
        </mxCell>
        <mxCell id="00_ZHb2V5lhUGdTlmTi6-15" value="&lt;font color=&quot;#000000&quot;&gt;+ DHCP Server&lt;/font&gt;" style="text;strokeColor=none;align=center;fillColor=none;html=1;verticalAlign=middle;whiteSpace=wrap;rounded=0;" parent="1" vertex="1">
          <mxGeometry x="693.5999999999999" y="499.5" width="60" height="30" as="geometry" />
        </mxCell>
        <mxCell id="-X8cqBuXrEdVPGyybMgc-2" value="&lt;font color=&quot;#000000&quot;&gt;vsFTPd&lt;br&gt;&lt;br&gt;&lt;/font&gt;" style="text;strokeColor=none;align=center;fillColor=none;html=1;verticalAlign=middle;whiteSpace=wrap;rounded=0;" parent="1" vertex="1">
          <mxGeometry x="665.8000000000001" y="329" width="60" height="30" as="geometry" />
        </mxCell>
        <mxCell id="-X8cqBuXrEdVPGyybMgc-3" value="&lt;font color=&quot;#000000&quot;&gt;Wordpress&lt;br&gt;&lt;/font&gt;" style="text;strokeColor=none;align=center;fillColor=none;html=1;verticalAlign=middle;whiteSpace=wrap;rounded=0;" parent="1" vertex="1">
          <mxGeometry x="778.3100000000001" y="319" width="60" height="30" as="geometry" />
        </mxCell>
        <mxCell id="-X8cqBuXrEdVPGyybMgc-4" value="&lt;font color=&quot;#000000&quot;&gt;SAMBA&lt;br&gt;&lt;/font&gt;" style="text;strokeColor=none;align=center;fillColor=none;html=1;verticalAlign=middle;whiteSpace=wrap;rounded=0;" parent="1" vertex="1">
          <mxGeometry x="890.0000000000002" y="579" width="60" height="30" as="geometry" />
        </mxCell>
        <mxCell id="-X8cqBuXrEdVPGyybMgc-5" value="&lt;font color=&quot;#000000&quot;&gt;Security Onion&lt;br&gt;&lt;/font&gt;" style="text;strokeColor=none;align=center;fillColor=none;html=1;verticalAlign=middle;whiteSpace=wrap;rounded=0;" parent="1" vertex="1">
          <mxGeometry x="1079.7600000000002" y="590" width="60" height="30" as="geometry" />
        </mxCell>
        <mxCell id="-X8cqBuXrEdVPGyybMgc-6" value="" style="sketch=0;html=1;aspect=fixed;strokeColor=none;shadow=0;fillColor=#3B8DF1;verticalAlign=top;labelPosition=center;verticalLabelPosition=bottom;shape=image;labelBackgroundColor=default;points=[];image=img/lib/mscae/VirtualMachineWindows.svg;" parent="1" vertex="1">
          <mxGeometry x="543.6" y="730" width="68.18" height="60" as="geometry" />
        </mxCell>
        <mxCell id="-X8cqBuXrEdVPGyybMgc-7" value="" style="sketch=0;html=1;aspect=fixed;strokeColor=none;shadow=0;fillColor=#3B8DF1;verticalAlign=top;labelPosition=center;verticalLabelPosition=bottom;shape=image;labelBackgroundColor=default;points=[];image=img/lib/mscae/VirtualMachineWindows.svg;" parent="1" vertex="1">
          <mxGeometry x="627.8" y="730" width="68.18" height="60" as="geometry" />
        </mxCell>
        <mxCell id="-X8cqBuXrEdVPGyybMgc-8" value="" style="sketch=0;html=1;aspect=fixed;strokeColor=none;shadow=0;fillColor=#3B8DF1;verticalAlign=top;labelPosition=center;verticalLabelPosition=bottom;shape=image;labelBackgroundColor=default;points=[];image=img/lib/mscae/VirtualMachineWindows.svg;" parent="1" vertex="1">
          <mxGeometry x="708.1800000000001" y="730" width="68.18" height="60" as="geometry" />
        </mxCell>
        <mxCell id="-X8cqBuXrEdVPGyybMgc-9" value="" style="sketch=0;html=1;aspect=fixed;strokeColor=none;shadow=0;fillColor=#3B8DF1;verticalAlign=top;labelPosition=center;verticalLabelPosition=bottom;shape=image;labelBackgroundColor=default;points=[];image=img/lib/mscae/VirtualMachineWindows.svg;" parent="1" vertex="1">
          <mxGeometry x="864.78" y="730" width="68.18" height="60" as="geometry" />
        </mxCell>
        <mxCell id="-X8cqBuXrEdVPGyybMgc-10" value="" style="sketch=0;html=1;aspect=fixed;strokeColor=none;shadow=0;fillColor=#3B8DF1;verticalAlign=top;labelPosition=center;verticalLabelPosition=bottom;shape=image;labelBackgroundColor=default;points=[];image=img/lib/mscae/VirtualMachineWindows.svg;" parent="1" vertex="1">
          <mxGeometry x="941.4000000000001" y="730" width="68.18" height="60" as="geometry" />
        </mxCell>
        <mxCell id="-X8cqBuXrEdVPGyybMgc-11" value="" style="sketch=0;html=1;aspect=fixed;strokeColor=none;shadow=0;fillColor=#3B8DF1;verticalAlign=top;labelPosition=center;verticalLabelPosition=bottom;shape=image;labelBackgroundColor=default;points=[];image=img/lib/mscae/VirtualMachineWindows.svg;" parent="1" vertex="1">
          <mxGeometry x="1017.78" y="730" width="68.18" height="60" as="geometry" />
        </mxCell>
        <mxCell id="-X8cqBuXrEdVPGyybMgc-12" value="&lt;font color=&quot;#000000&quot;&gt;Windows 10&lt;br&gt;Workstation02&lt;br&gt;&lt;/font&gt;" style="text;strokeColor=none;align=center;fillColor=none;html=1;verticalAlign=middle;whiteSpace=wrap;rounded=0;" parent="1" vertex="1">
          <mxGeometry x="627.1799999999998" y="810" width="60" height="30" as="geometry" />
        </mxCell>
        <mxCell id="-X8cqBuXrEdVPGyybMgc-13" value="&lt;font color=&quot;#000000&quot;&gt;Windows 10&lt;br&gt;Workstation03&lt;br&gt;&lt;/font&gt;" style="text;strokeColor=none;align=center;fillColor=none;html=1;verticalAlign=middle;whiteSpace=wrap;rounded=0;" parent="1" vertex="1">
          <mxGeometry x="710.7799999999997" y="810" width="60" height="30" as="geometry" />
        </mxCell>
        <mxCell id="-X8cqBuXrEdVPGyybMgc-14" value="&lt;font color=&quot;#000000&quot;&gt;Windows 10&lt;br&gt;Workstation04&lt;br&gt;&lt;/font&gt;" style="text;strokeColor=none;align=center;fillColor=none;html=1;verticalAlign=middle;whiteSpace=wrap;rounded=0;" parent="1" vertex="1">
          <mxGeometry x="789.3999999999999" y="810" width="60" height="30" as="geometry" />
        </mxCell>
        <mxCell id="-X8cqBuXrEdVPGyybMgc-15" value="&lt;font color=&quot;#000000&quot;&gt;Windows 10&lt;br&gt;Workstation05&lt;br&gt;&lt;/font&gt;" style="text;strokeColor=none;align=center;fillColor=none;html=1;verticalAlign=middle;whiteSpace=wrap;rounded=0;" parent="1" vertex="1">
          <mxGeometry x="868.7799999999997" y="810" width="60" height="30" as="geometry" />
        </mxCell>
        <mxCell id="-X8cqBuXrEdVPGyybMgc-16" value="&lt;font color=&quot;#000000&quot;&gt;Windows 10&lt;br&gt;Workstation06&lt;br&gt;&lt;/font&gt;" style="text;strokeColor=none;align=center;fillColor=none;html=1;verticalAlign=middle;whiteSpace=wrap;rounded=0;" parent="1" vertex="1">
          <mxGeometry x="947.5799999999997" y="810" width="60" height="30" as="geometry" />
        </mxCell>
        <mxCell id="-X8cqBuXrEdVPGyybMgc-17" value="&lt;font color=&quot;#000000&quot;&gt;Windows 10&lt;br&gt;Workstation07&lt;br&gt;&lt;/font&gt;" style="text;strokeColor=none;align=center;fillColor=none;html=1;verticalAlign=middle;whiteSpace=wrap;rounded=0;" parent="1" vertex="1">
          <mxGeometry x="1025.9599999999998" y="810" width="60" height="30" as="geometry" />
        </mxCell>
        <mxCell id="-X8cqBuXrEdVPGyybMgc-18" value="" style="rounded=0;whiteSpace=wrap;html=1;fillColor=#cce5ff;shadow=0;strokeColor=#36393d;gradientDirection=west;perimeterSpacing=1;" parent="1" vertex="1">
          <mxGeometry x="200" y="160" width="240" height="170" as="geometry" />
        </mxCell>
        <mxCell id="O_LtsVnzB3t-fKtQCP8V-8" value="Firewall&lt;br&gt;(OPNSense)" style="whiteSpace=wrap;html=1;aspect=fixed;" parent="1" vertex="1">
          <mxGeometry x="280" y="205" width="80" height="80" as="geometry" />
        </mxCell>
        <mxCell id="-X8cqBuXrEdVPGyybMgc-19" value="&lt;font color=&quot;#000000&quot;&gt;172.31.50.0/24&lt;/font&gt;" style="text;strokeColor=none;align=center;fillColor=none;html=1;verticalAlign=middle;whiteSpace=wrap;rounded=0;" parent="1" vertex="1">
          <mxGeometry x="210" y="160" width="60" height="30" as="geometry" />
        </mxCell>
        <mxCell id="-X8cqBuXrEdVPGyybMgc-20" value="172.31.53.60" style="image;aspect=fixed;perimeter=ellipsePerimeter;html=1;align=center;shadow=0;dashed=0;spacingTop=3;image=img/lib/active_directory/generic_server.svg;" parent="1" vertex="1">
          <mxGeometry x="1085.96" y="472.5" width="47.6" height="85" as="geometry" />
        </mxCell>
        <mxCell id="-X8cqBuXrEdVPGyybMgc-24" value="172.31.53.55" style="image;aspect=fixed;perimeter=ellipsePerimeter;html=1;align=center;shadow=0;dashed=0;spacingTop=3;image=img/lib/active_directory/generic_server.svg;" parent="1" vertex="1">
          <mxGeometry x="982.78" y="459" width="47.6" height="85" as="geometry" />
        </mxCell>
        <mxCell id="-X8cqBuXrEdVPGyybMgc-25" value="&lt;font color=&quot;#000000&quot;&gt;Graylog&lt;br&gt;&lt;/font&gt;" style="text;strokeColor=none;align=center;fillColor=none;html=1;verticalAlign=middle;whiteSpace=wrap;rounded=0;" parent="1" vertex="1">
          <mxGeometry x="976.5800000000002" y="579" width="60" height="30" as="geometry" />
        </mxCell>
        <mxCell id="-X8cqBuXrEdVPGyybMgc-26" value="" style="rounded=0;whiteSpace=wrap;html=1;fillColor=#cce5ff;shadow=0;strokeColor=#36393d;gradientDirection=west;perimeterSpacing=1;" parent="1" vertex="1">
          <mxGeometry x="200" y="390.5" width="240" height="490" as="geometry" />
        </mxCell>
        <mxCell id="-X8cqBuXrEdVPGyybMgc-27" value="172.31.100.100" style="image;aspect=fixed;perimeter=ellipsePerimeter;html=1;align=center;shadow=0;dashed=0;spacingTop=3;image=img/lib/active_directory/generic_server.svg;" parent="1" vertex="1">
          <mxGeometry x="289.20000000000005" y="425.5" width="47.6" height="85" as="geometry" />
        </mxCell>
        <mxCell id="-X8cqBuXrEdVPGyybMgc-28" value="&lt;font color=&quot;#000000&quot;&gt;kali01&lt;br&gt;&lt;/font&gt;" style="text;strokeColor=none;align=center;fillColor=none;html=1;verticalAlign=middle;whiteSpace=wrap;rounded=0;" parent="1" vertex="1">
          <mxGeometry x="280.00000000000006" y="527.5" width="60" height="30" as="geometry" />
        </mxCell>
        <mxCell id="CmNtWAup0YX5rR0TAcVt-1" value="172.31.100.102" style="image;aspect=fixed;perimeter=ellipsePerimeter;html=1;align=center;shadow=0;dashed=0;spacingTop=3;image=img/lib/active_directory/generic_server.svg;" vertex="1" parent="1">
          <mxGeometry x="283.00000000000006" y="717.5" width="47.6" height="85" as="geometry" />
        </mxCell>
        <mxCell id="CmNtWAup0YX5rR0TAcVt-3" value="&lt;font color=&quot;#000000&quot;&gt;Windows 10&lt;br&gt;PT01&lt;br&gt;&lt;/font&gt;" style="text;strokeColor=none;align=center;fillColor=none;html=1;verticalAlign=middle;whiteSpace=wrap;rounded=0;" vertex="1" parent="1">
          <mxGeometry x="279.99999999999994" y="665" width="60" height="30" as="geometry" />
        </mxCell>
        <mxCell id="CmNtWAup0YX5rR0TAcVt-4" value="172.31.100.101" style="sketch=0;html=1;aspect=fixed;strokeColor=none;shadow=0;fillColor=#3B8DF1;verticalAlign=top;labelPosition=center;verticalLabelPosition=bottom;shape=image;labelBackgroundColor=default;points=[];image=img/lib/mscae/VirtualMachineWindows.svg;" vertex="1" parent="1">
          <mxGeometry x="275.91" y="579" width="68.18" height="60" as="geometry" />
        </mxCell>
        <mxCell id="CmNtWAup0YX5rR0TAcVt-5" value="&lt;font color=&quot;#000000&quot;&gt;kali0&lt;br&gt;&lt;/font&gt;" style="text;strokeColor=none;align=center;fillColor=none;html=1;verticalAlign=middle;whiteSpace=wrap;rounded=0;" vertex="1" parent="1">
          <mxGeometry x="270.6000000000001" y="822" width="60" height="30" as="geometry" />
        </mxCell>
        <mxCell id="CmNtWAup0YX5rR0TAcVt-6" value="&lt;font color=&quot;#000000&quot;&gt;172.31.100.0/24&lt;br&gt;Gray Space&lt;br&gt;&lt;/font&gt;" style="text;strokeColor=none;align=center;fillColor=none;html=1;verticalAlign=middle;whiteSpace=wrap;rounded=0;" vertex="1" parent="1">
          <mxGeometry x="215.6" y="395.5" width="60" height="30" as="geometry" />
        </mxCell>
      </root>
    </mxGraphModel>
  </diagram>
</mxfile>
